<?xml version="1.0" standalone="no"?>
<!DOCTYPE svg PUBLIC "-//W3C//DTD SVG 20010904//EN"
 "http://www.w3.org/TR/2001/REC-SVG-20010904/DTD/svg10.dtd">
<svg version="1.0" xmlns="http://www.w3.org/2000/svg"
 width="700.000000pt" height="700.000000pt" viewBox="0 0 700.000000 700.000000"
 preserveAspectRatio="xMidYMid meet">
<metadata>
Created by potrace 1.11, written by Peter Selinger 2001-2013
</metadata>
<g transform="translate(0.000000,700.000000) scale(0.100000,-0.100000)"
fill="#000000" stroke="none">
<path d="M0 3500 l0 -3500 3493 2 3492 3 3 3498 2 3497 -3495 0 -3495 0 0
-3500z m6489 3176 c-2 -2 -96 -25 -209 -50 -247 -56 -309 -82 -397 -172 -96
-97 -162 -252 -192 -449 -6 -38 -83 -621 -171 -1295 -87 -674 -166 -1270 -174
-1325 -9 -55 -61 -446 -116 -870 -55 -423 -107 -805 -115 -848 -70 -352 -376
-665 -756 -774 l-94 -26 -423 -4 c-280 -3 -446 -1 -494 7 -100 15 -211 54
-291 102 l-69 40 -96 -45 c-214 -99 -236 -102 -762 -102 -512 0 -514 0 -689
87 -89 44 -117 64 -190 137 -166 166 -241 356 -227 576 3 50 118 942 256 1983
137 1041 250 1904 250 1917 l0 25 -225 0 c-183 0 -225 3 -225 14 0 7 3 34 6
60 l7 46 873 0 874 0 0 -22 c0 -13 -3 -40 -6 -60 l-7 -38 -248 0 -248 0 -6
-32 c-3 -18 -123 -931 -267 -2028 -239 -1826 -261 -2008 -262 -2150 -1 -166 9
-225 50 -291 58 -93 122 -113 343 -107 122 3 154 7 193 25 121 55 206 198 252
425 9 42 137 1003 286 2135 149 1132 273 2077 276 2101 l6 42 399 0 399 0 -5
-27 c-3 -16 -127 -955 -276 -2088 -249 -1887 -272 -2073 -273 -2215 -1 -121 3
-167 16 -211 23 -73 68 -133 120 -161 40 -22 55 -23 223 -23 177 0 181 0 237
28 133 66 218 230 263 512 8 55 139 1043 290 2195 151 1152 282 2127 290 2165
22 99 72 218 130 305 58 89 194 228 285 292 138 97 320 169 475 187 70 8 722
15 714 7z"/>
</g>
</svg>
