<svg width="198" height="233" viewBox="0 0 198 233" fill="none" xmlns="http://www.w3.org/2000/svg">
<path d="M-0.000793457 0H197.535V199.415H-0.000793457V0Z" fill="#DF2521"/>
<path fill-rule="evenodd" clip-rule="evenodd" d="M148.698 25.4326L148.207 25.5555L141.999 26.9685C138.435 28.0747 136.305 31.2906 135.61 36.6153L130.386 76.8009C130.305 77.457 130.243 78.1315 130.202 78.8281H130.08L126.7 105.005C126.208 108.937 124.344 112.296 121.109 115.082C117.83 117.868 114.164 119.26 110.11 119.26H100.524C97.4518 119.26 94.7685 118.421 92.4743 116.74C89.7299 118.421 86.8208 119.26 83.7491 119.26H74.1023C70.0465 119.26 66.7497 117.868 64.2106 115.082C61.7105 112.296 60.7093 108.937 61.1992 105.005L69.3095 43.0051H61.9355L62.2437 41.0389H90.2014L89.9557 43.0051H81.9676L73.5492 108.077C72.7291 114.221 74.0406 117.294 77.4815 117.294H80.8606C84.3023 117.294 86.4119 114.221 87.1908 108.077L95.9152 41.0389H108.635L99.9093 108.077C99.1304 114.221 100.462 117.294 103.903 117.294H107.221C110.664 117.294 112.793 114.221 113.613 108.077L122.522 39.6884C123.013 35.7547 124.877 32.3976 128.113 29.6092C131.348 26.8257 135.014 25.4326 139.112 25.4326H148.698ZM30.3906 145.808H37.3222L41.929 164.317H42.0107L48.044 145.808H53.9559L59.9495 164.807H60.0312L64.883 145.808H71.3239L62.8856 174.673H57.2179L50.8573 154.695H50.7763L44.4163 174.673H38.9532L30.3906 145.808ZM88.8118 145.808H94.0712L106.628 174.673H99.4527L96.9654 168.558H85.7536L83.348 174.673H76.3355L88.8118 145.808ZM91.258 154.207L87.7517 163.176H94.8047L91.258 154.207ZM117.349 145.808H123.709V168.802H135.492V174.673H117.349V145.808ZM148.454 145.808H154.814V168.802H166.598V174.673H148.454V145.808Z" fill="white"/>
<path fill-rule="evenodd" clip-rule="evenodd" d="M93.6758 217.387H96.2916V229.718H102.539V232.084H93.6758V217.387ZM111.282 217.387H113.545L119.876 232.084H116.887L115.516 228.721H109.144L107.814 232.084H104.888L111.282 217.387ZM114.603 226.479L112.34 220.5L110.035 226.479H114.603ZM119.047 217.387H121.911L124.673 227.974H124.714L128.015 217.387H130.589L133.827 227.974H133.868L136.754 217.387H139.412L135.135 232.084H132.644L129.239 220.895H129.198L125.794 232.084H123.385L119.047 217.387ZM148.861 217.387H158.347V219.753H151.476V223.615H157.954V225.981H151.476V232.084H148.861V217.387ZM164.162 217.387V232.084H161.546V217.387H164.162ZM168.21 217.387H173.318C176.14 217.387 178.797 218.301 178.797 221.601C178.797 223.718 177.573 225.275 175.392 225.586L179.296 232.084H176.14L172.735 225.856H170.826V232.084H168.21V217.387ZM172.86 223.615C174.334 223.615 176.057 223.49 176.057 221.58C176.057 219.836 174.438 219.629 173.088 219.629H170.826V223.615H172.86ZM182.183 217.387H186.168L190.092 227.683L194.057 217.387H198.001V232.084H195.51V219.878H195.469L191.005 232.084H189.179L184.715 219.878H184.674V232.084H182.183V217.387Z" fill="#DF2521"/>
</svg>
