<svg width="287" height="211" viewBox="0 0 287 211" fill="none" xmlns="http://www.w3.org/2000/svg">
<path fill-rule="evenodd" clip-rule="evenodd" d="M0 2.89128H286.213V0H0V2.89128Z" fill="white"/>
<path fill-rule="evenodd" clip-rule="evenodd" d="M0 211H286V202H0V211Z" fill="white"/>
<path d="M99.7324 167.728V163.961H102.553V158.32H107.785V163.961H111.069V167.728H107.785V178.415C107.785 179.244 107.89 179.763 108.101 179.974C108.311 180.172 108.954 180.271 110.03 180.271C110.191 180.271 110.358 180.271 110.531 180.271C110.717 180.258 110.896 180.246 111.069 180.233V184.186L108.564 184.278C106.066 184.365 104.359 183.932 103.443 182.979C102.85 182.373 102.553 181.439 102.553 180.178V167.728H99.7324Z" fill="white"/>
<path d="M84.7764 177.543C84.8877 178.483 85.1289 179.151 85.5 179.547C86.1556 180.252 87.3678 180.604 89.1367 180.604C90.1758 180.604 90.9984 180.45 91.6045 180.141C92.223 179.831 92.5322 179.368 92.5322 178.749C92.5322 178.155 92.2848 177.704 91.79 177.395C91.2952 177.085 89.4583 176.553 86.2793 175.799C83.9909 175.23 82.3766 174.519 81.4365 173.665C80.4964 172.824 80.0264 171.612 80.0264 170.028C80.0264 168.16 80.7562 166.559 82.2158 165.223C83.6878 163.874 85.7536 163.2 88.4131 163.2C90.9365 163.2 92.9899 163.707 94.5732 164.722C96.1689 165.724 97.0843 167.462 97.3193 169.936H92.0312C91.957 169.255 91.7653 168.717 91.4561 168.321C90.8747 167.604 89.8851 167.245 88.4873 167.245C87.3369 167.245 86.5143 167.424 86.0195 167.783C85.5371 168.142 85.2959 168.562 85.2959 169.045C85.2959 169.651 85.5557 170.09 86.0752 170.362C86.5947 170.647 88.4316 171.135 91.5859 171.828C93.6888 172.323 95.266 173.071 96.3174 174.073C97.3564 175.088 97.876 176.355 97.876 177.877C97.876 179.881 97.1276 181.52 95.6309 182.794C94.1465 184.056 91.8457 184.687 88.7285 184.687C85.5495 184.687 83.1992 184.019 81.6777 182.683C80.1686 181.334 79.4141 179.621 79.4141 177.543H84.7764Z" fill="white"/>
<path d="M62.6973 163.775V175.966C62.6973 177.116 62.8333 177.982 63.1055 178.563C63.5879 179.59 64.5342 180.104 65.9443 180.104C67.7503 180.104 68.9873 179.374 69.6553 177.914C70.0016 177.122 70.1748 176.077 70.1748 174.778V163.775H75.5371V184H70.3975V181.143C70.348 181.204 70.2243 181.39 70.0264 181.699C69.8285 182.008 69.5934 182.281 69.3213 182.516C68.4925 183.258 67.6885 183.765 66.9092 184.037C66.1423 184.309 65.2393 184.445 64.2002 184.445C61.2067 184.445 59.1904 183.369 58.1514 181.217C57.57 180.029 57.2793 178.279 57.2793 175.966V163.775H62.6973Z" fill="white"/>
<path d="M53.6064 163.293C53.7054 163.293 53.7858 163.299 53.8477 163.312C53.9219 163.312 54.0765 163.318 54.3115 163.33V168.748C53.9775 168.711 53.6807 168.686 53.4209 168.674C53.1611 168.661 52.9508 168.655 52.79 168.655C50.6624 168.655 49.2337 169.348 48.5039 170.733C48.0957 171.513 47.8916 172.713 47.8916 174.333V184H42.5664V163.775H47.6133V167.301C48.4297 165.952 49.141 165.031 49.7471 164.536C50.7367 163.707 52.0231 163.293 53.6064 163.293Z" fill="white"/>
<path d="M41.7676 156.65V161.493H33.585V184H27.833V161.493H19.6133V156.65H41.7676Z" fill="white"/>
<path d="M191.393 143.878L192.061 143.915C192.58 143.94 193.075 143.921 193.545 143.859C194.015 143.798 194.411 143.655 194.732 143.433C195.042 143.222 195.326 142.783 195.586 142.115C195.858 141.447 195.969 141.039 195.92 140.891L188.498 119.775H194.38L198.796 134.693L202.971 119.775H208.593L201.653 139.666C200.317 143.501 199.26 145.876 198.48 146.791C197.701 147.719 196.143 148.183 193.805 148.183C193.335 148.183 192.957 148.176 192.673 148.164C192.388 148.164 191.962 148.146 191.393 148.108V143.878Z" fill="white"/>
<path d="M178.274 119.33C180.934 119.33 183.012 120.289 184.509 122.206C186.018 124.123 186.772 126.597 186.772 129.628C186.772 132.77 186.03 135.374 184.546 137.439C183.062 139.505 180.99 140.538 178.33 140.538C176.66 140.538 175.318 140.204 174.304 139.536C173.698 139.14 173.042 138.448 172.337 137.458V140H167.16V112.688H172.43V122.41C173.098 121.47 173.834 120.753 174.638 120.258C175.59 119.639 176.802 119.33 178.274 119.33ZM176.92 136.178C178.281 136.178 179.338 135.627 180.093 134.526C180.847 133.425 181.225 131.978 181.225 130.185C181.225 128.75 181.039 127.562 180.668 126.622C179.963 124.841 178.664 123.95 176.771 123.95C174.854 123.95 173.537 124.822 172.819 126.566C172.448 127.494 172.263 128.694 172.263 130.166C172.263 131.898 172.646 133.333 173.413 134.471C174.18 135.609 175.349 136.178 176.92 136.178Z" fill="white"/>
<path d="M140.998 119.293C142.223 119.293 143.311 119.565 144.264 120.109C145.216 120.641 145.989 121.383 146.583 122.336V112.688H151.945V140H146.806V137.198C146.051 138.398 145.191 139.27 144.227 139.814C143.262 140.359 142.062 140.631 140.627 140.631C138.264 140.631 136.273 139.678 134.652 137.773C133.044 135.856 132.24 133.401 132.24 130.407C132.24 126.956 133.032 124.241 134.615 122.262C136.211 120.283 138.339 119.293 140.998 119.293ZM142.148 136.178C143.645 136.178 144.783 135.621 145.562 134.508C146.342 133.395 146.731 131.953 146.731 130.185C146.731 127.711 146.107 125.942 144.857 124.878C144.09 124.235 143.2 123.913 142.186 123.913C140.639 123.913 139.501 124.501 138.771 125.676C138.054 126.839 137.695 128.286 137.695 130.018C137.695 131.885 138.06 133.382 138.79 134.508C139.532 135.621 140.652 136.178 142.148 136.178Z" fill="white"/>
<path d="M120.365 123.598C119.141 123.598 118.188 123.981 117.508 124.748C116.84 125.515 116.419 126.554 116.246 127.865H124.466C124.379 126.467 123.952 125.41 123.186 124.692C122.431 123.963 121.491 123.598 120.365 123.598ZM120.365 119.237C122.048 119.237 123.563 119.553 124.911 120.184C126.259 120.814 127.373 121.81 128.251 123.171C129.043 124.371 129.556 125.762 129.791 127.346C129.927 128.273 129.983 129.609 129.958 131.354H116.116C116.19 133.382 116.827 134.805 118.027 135.621C118.757 136.128 119.635 136.382 120.662 136.382C121.751 136.382 122.635 136.073 123.315 135.454C123.687 135.12 124.014 134.656 124.299 134.062H129.698C129.562 135.262 128.938 136.481 127.824 137.718C126.092 139.685 123.668 140.668 120.551 140.668C117.978 140.668 115.708 139.839 113.741 138.182C111.774 136.524 110.791 133.827 110.791 130.092C110.791 126.591 111.675 123.907 113.444 122.039C115.226 120.171 117.533 119.237 120.365 119.237Z" fill="white"/>
<path d="M91.1797 112.743H96.375V127.476L102.962 119.868H109.512L102.442 127.605L109.79 140H103.407L98.5645 131.354L96.375 133.636V140H91.1797V112.743Z" fill="white"/>
<path d="M82.1611 127.03C82.0622 126.276 81.8086 125.595 81.4004 124.989C80.8066 124.173 79.8851 123.765 78.6357 123.765C76.8545 123.765 75.6361 124.649 74.9805 126.418C74.6341 127.358 74.4609 128.607 74.4609 130.166C74.4609 131.65 74.6341 132.844 74.9805 133.747C75.6113 135.429 76.7988 136.271 78.543 136.271C79.7799 136.271 80.6582 135.937 81.1777 135.269C81.6973 134.601 82.0127 133.735 82.124 132.671H87.5234C87.3997 134.279 86.8184 135.8 85.7793 137.235C84.1217 139.549 81.6663 140.705 78.4131 140.705C75.1598 140.705 72.7663 139.74 71.2324 137.811C69.6986 135.881 68.9316 133.376 68.9316 130.296C68.9316 126.82 69.779 124.117 71.4736 122.188C73.1683 120.258 75.5062 119.293 78.4873 119.293C81.0231 119.293 83.0951 119.862 84.7031 121C86.3236 122.138 87.2822 124.148 87.5791 127.03H82.1611Z" fill="white"/>
<path d="M60.0811 130.166C59.7471 130.376 59.4069 130.549 59.0605 130.686C58.7266 130.809 58.2627 130.927 57.6689 131.038L56.4814 131.261C55.3682 131.459 54.5703 131.7 54.0879 131.984C53.2715 132.467 52.8633 133.215 52.8633 134.229C52.8633 135.132 53.1107 135.788 53.6055 136.196C54.1126 136.592 54.7249 136.79 55.4424 136.79C56.5804 136.79 57.6257 136.456 58.5781 135.788C59.543 135.12 60.0439 133.902 60.0811 132.133V130.166ZM56.8711 127.698C57.8483 127.575 58.5472 127.42 58.9678 127.234C59.7223 126.913 60.0996 126.412 60.0996 125.731C60.0996 124.903 59.8089 124.334 59.2275 124.024C58.6585 123.703 57.8174 123.542 56.7041 123.542C55.4548 123.542 54.5703 123.851 54.0508 124.47C53.6797 124.927 53.4323 125.546 53.3086 126.325H48.2061C48.3174 124.556 48.8122 123.103 49.6904 121.965C51.0882 120.184 53.488 119.293 56.8896 119.293C59.1038 119.293 61.0706 119.732 62.79 120.61C64.5094 121.489 65.3691 123.146 65.3691 125.583V134.86C65.3691 135.504 65.3815 136.283 65.4062 137.198C65.4434 137.891 65.5485 138.361 65.7217 138.608C65.8949 138.856 66.1546 139.06 66.501 139.221V140H60.749C60.5882 139.592 60.4769 139.208 60.415 138.85C60.3532 138.491 60.3037 138.083 60.2666 137.625C59.5368 138.417 58.6956 139.091 57.7432 139.647C56.6051 140.303 55.3187 140.631 53.8838 140.631C52.0531 140.631 50.5378 140.111 49.3379 139.072C48.1504 138.021 47.5566 136.536 47.5566 134.619C47.5566 132.133 48.5153 130.333 50.4326 129.22C51.484 128.614 53.0303 128.181 55.0713 127.921L56.8711 127.698Z" fill="white"/>
<path d="M27.4434 117.4V123.431H34.1602C35.36 123.431 36.3311 123.208 37.0732 122.763C37.8278 122.305 38.2051 121.501 38.2051 120.351C38.2051 119.076 37.7103 118.235 36.7207 117.827C35.8672 117.543 34.7786 117.4 33.4551 117.4H27.4434ZM27.4434 127.958V135.25H34.1602C35.36 135.25 36.2939 135.089 36.9619 134.768C38.1742 134.174 38.7803 133.036 38.7803 131.354C38.7803 129.931 38.1927 128.954 37.0176 128.422C36.362 128.125 35.4404 127.97 34.2529 127.958H27.4434ZM35.2734 112.65C38.6257 112.7 41.0007 113.671 42.3984 115.563C43.2396 116.726 43.6602 118.118 43.6602 119.738C43.6602 121.408 43.2396 122.75 42.3984 123.765C41.9284 124.334 41.2357 124.853 40.3203 125.323C41.7181 125.83 42.7695 126.634 43.4746 127.735C44.1921 128.836 44.5508 130.172 44.5508 131.743C44.5508 133.364 44.1426 134.817 43.3262 136.104C42.8066 136.957 42.1572 137.674 41.3779 138.256C40.4997 138.924 39.4606 139.382 38.2607 139.629C37.0732 139.876 35.7806 140 34.3828 140H21.9883V112.65H35.2734Z" fill="white"/>
<path d="M180.816 99.8779L181.484 99.915C182.004 99.9398 182.499 99.9212 182.969 99.8594C183.439 99.7975 183.835 99.6553 184.156 99.4326C184.465 99.2223 184.75 98.7832 185.01 98.1152C185.282 97.4473 185.393 97.0391 185.344 96.8906L177.922 75.7754H183.804L188.22 90.6934L192.395 75.7754H198.017L191.077 95.666C189.741 99.5007 188.684 101.876 187.904 102.791C187.125 103.719 185.566 104.183 183.229 104.183C182.758 104.183 182.381 104.176 182.097 104.164C181.812 104.164 181.385 104.146 180.816 104.108V99.8779Z" fill="white"/>
<path d="M170.927 83.0303C170.828 82.2757 170.574 81.5954 170.166 80.9893C169.572 80.1729 168.651 79.7646 167.401 79.7646C165.62 79.7646 164.402 80.6491 163.746 82.418C163.4 83.3581 163.227 84.6074 163.227 86.166C163.227 87.6504 163.4 88.8441 163.746 89.7471C164.377 91.4294 165.564 92.2705 167.309 92.2705C168.546 92.2705 169.424 91.9365 169.943 91.2686C170.463 90.6006 170.778 89.7347 170.89 88.6709H176.289C176.165 90.279 175.584 91.8005 174.545 93.2354C172.887 95.5485 170.432 96.7051 167.179 96.7051C163.925 96.7051 161.532 95.7402 159.998 93.8105C158.464 91.8809 157.697 89.376 157.697 86.2959C157.697 82.82 158.545 80.1172 160.239 78.1875C161.934 76.2578 164.272 75.293 167.253 75.293C169.789 75.293 171.861 75.862 173.469 77C175.089 78.138 176.048 80.1481 176.345 83.0303H170.927Z" fill="white"/>
<path d="M148.847 86.166C148.513 86.3763 148.173 86.5495 147.826 86.6855C147.492 86.8092 147.028 86.9268 146.435 87.0381L145.247 87.2607C144.134 87.4587 143.336 87.6999 142.854 87.9844C142.037 88.4668 141.629 89.2152 141.629 90.2295C141.629 91.1325 141.876 91.7881 142.371 92.1963C142.878 92.5921 143.491 92.79 144.208 92.79C145.346 92.79 146.391 92.4561 147.344 91.7881C148.309 91.1201 148.81 89.9017 148.847 88.1328V86.166ZM145.637 83.6982C146.614 83.5745 147.313 83.4199 147.733 83.2344C148.488 82.9128 148.865 82.4118 148.865 81.7314C148.865 80.9027 148.575 80.3337 147.993 80.0244C147.424 79.7028 146.583 79.542 145.47 79.542C144.22 79.542 143.336 79.8512 142.816 80.4697C142.445 80.9274 142.198 81.5459 142.074 82.3252H136.972C137.083 80.5563 137.578 79.1029 138.456 77.9648C139.854 76.1836 142.254 75.293 145.655 75.293C147.869 75.293 149.836 75.7321 151.556 76.6104C153.275 77.4886 154.135 79.1462 154.135 81.583V90.8604C154.135 91.5036 154.147 92.2829 154.172 93.1982C154.209 93.891 154.314 94.361 154.487 94.6084C154.66 94.8558 154.92 95.0599 155.267 95.2207V96H149.515C149.354 95.5918 149.243 95.2083 149.181 94.8496C149.119 94.4909 149.069 94.0827 149.032 93.625C148.302 94.4167 147.461 95.0908 146.509 95.6475C145.371 96.3031 144.084 96.6309 142.649 96.6309C140.819 96.6309 139.303 96.1113 138.104 95.0723C136.916 94.0208 136.322 92.5365 136.322 90.6191C136.322 88.1328 137.281 86.333 139.198 85.2197C140.25 84.6136 141.796 84.1807 143.837 83.9209L145.637 83.6982Z" fill="white"/>
<path d="M128.622 83.0303C128.523 82.2757 128.27 81.5954 127.861 80.9893C127.268 80.1729 126.346 79.7646 125.097 79.7646C123.315 79.7646 122.097 80.6491 121.441 82.418C121.095 83.3581 120.922 84.6074 120.922 86.166C120.922 87.6504 121.095 88.8441 121.441 89.7471C122.072 91.4294 123.26 92.2705 125.004 92.2705C126.241 92.2705 127.119 91.9365 127.639 91.2686C128.158 90.6006 128.474 89.7347 128.585 88.6709H133.984C133.861 90.279 133.279 91.8005 132.24 93.2354C130.583 95.5485 128.127 96.7051 124.874 96.7051C121.621 96.7051 119.227 95.7402 117.693 93.8105C116.16 91.8809 115.393 89.376 115.393 86.2959C115.393 82.82 116.24 80.1172 117.935 78.1875C119.629 76.2578 121.967 75.293 124.948 75.293C127.484 75.293 129.556 75.862 131.164 77C132.785 78.138 133.743 80.1481 134.04 83.0303H128.622Z" fill="white"/>
<path d="M102.387 92.2705C103.933 92.2705 105.12 91.7201 105.949 90.6191C106.778 89.5182 107.192 87.9535 107.192 85.9248C107.192 83.8962 106.778 82.3376 105.949 81.249C105.12 80.1481 103.933 79.5977 102.387 79.5977C100.84 79.5977 99.6468 80.1481 98.8057 81.249C97.9769 82.3376 97.5625 83.8962 97.5625 85.9248C97.5625 87.9535 97.9769 89.5182 98.8057 90.6191C99.6468 91.7201 100.84 92.2705 102.387 92.2705ZM112.74 85.9248C112.74 88.8936 111.887 91.4355 110.18 93.5508C108.473 95.6536 105.881 96.7051 102.405 96.7051C98.9294 96.7051 96.3379 95.6536 94.6309 93.5508C92.9238 91.4355 92.0703 88.8936 92.0703 85.9248C92.0703 83.0055 92.9238 80.4759 94.6309 78.3359C96.3379 76.196 98.9294 75.126 102.405 75.126C105.881 75.126 108.473 76.196 110.18 78.3359C111.887 80.4759 112.74 83.0055 112.74 85.9248Z" fill="white"/>
<path d="M84.6299 75.7754H90.3076L83.0156 96H77.4307L70.1758 75.7754H76.1133L80.3252 90.6934L84.6299 75.7754Z" fill="white"/>
<path d="M56.3887 75.293C57.6133 75.293 58.7018 75.5651 59.6543 76.1094C60.6068 76.6413 61.3799 77.3835 61.9736 78.3359V68.6875H67.3359V96H62.1963V93.1982C61.4417 94.3981 60.582 95.2702 59.6172 95.8145C58.6523 96.3587 57.4525 96.6309 56.0176 96.6309C53.6549 96.6309 51.6634 95.6784 50.043 93.7734C48.4349 91.8561 47.6309 89.4007 47.6309 86.4072C47.6309 82.9561 48.4225 80.2409 50.0059 78.2617C51.6016 76.2826 53.7292 75.293 56.3887 75.293ZM57.5391 92.1777C59.0358 92.1777 60.1738 91.6211 60.9531 90.5078C61.7324 89.3945 62.1221 87.9535 62.1221 86.1846C62.1221 83.7106 61.4974 81.9417 60.248 80.8779C59.4811 80.2347 58.5905 79.9131 57.5762 79.9131C56.0299 79.9131 54.8919 80.5007 54.1621 81.6758C53.4447 82.8385 53.0859 84.2858 53.0859 86.0176C53.0859 87.8854 53.4508 89.3822 54.1807 90.5078C54.9229 91.6211 56.0423 92.1777 57.5391 92.1777Z" fill="white"/>
<path d="M29.3721 85.665H36.3115L32.8975 74.9033L29.3721 85.665ZM29.7246 68.6504H36.1816L45.8672 96H39.6699L37.9072 90.3779H27.832L25.9395 96H19.9648L29.7246 68.6504Z" fill="white"/>
<path d="M150.832 31.293C152.057 31.293 153.145 31.5651 154.098 32.1094C155.05 32.6413 155.823 33.3835 156.417 34.3359V24.6875H161.779V52H156.64V49.1982C155.885 50.3981 155.025 51.2702 154.061 51.8145C153.096 52.3587 151.896 52.6309 150.461 52.6309C148.098 52.6309 146.107 51.6784 144.486 49.7734C142.878 47.8561 142.074 45.4007 142.074 42.4072C142.074 38.9561 142.866 36.2409 144.449 34.2617C146.045 32.2826 148.173 31.293 150.832 31.293ZM151.982 48.1777C153.479 48.1777 154.617 47.6211 155.396 46.5078C156.176 45.3945 156.565 43.9535 156.565 42.1846C156.565 39.7106 155.941 37.9417 154.691 36.8779C153.924 36.2347 153.034 35.9131 152.02 35.9131C150.473 35.9131 149.335 36.5007 148.605 37.6758C147.888 38.8385 147.529 40.2858 147.529 42.0176C147.529 43.8854 147.894 45.3822 148.624 46.5078C149.366 47.6211 150.486 48.1777 151.982 48.1777Z" fill="white"/>
<path d="M130.199 35.5977C128.975 35.5977 128.022 35.9811 127.342 36.748C126.674 37.515 126.253 38.554 126.08 39.8652H134.3C134.213 38.4674 133.786 37.4098 133.02 36.6924C132.265 35.9626 131.325 35.5977 130.199 35.5977ZM130.199 31.2373C131.882 31.2373 133.397 31.5527 134.745 32.1836C136.093 32.8145 137.207 33.8102 138.085 35.1709C138.877 36.3708 139.39 37.7624 139.625 39.3457C139.761 40.2734 139.817 41.6094 139.792 43.3535H125.95C126.024 45.3822 126.661 46.8047 127.861 47.6211C128.591 48.1283 129.469 48.3818 130.496 48.3818C131.585 48.3818 132.469 48.0726 133.149 47.4541C133.521 47.1201 133.848 46.6562 134.133 46.0625H139.532C139.396 47.2624 138.771 48.4808 137.658 49.7178C135.926 51.6846 133.502 52.668 130.385 52.668C127.812 52.668 125.542 51.8392 123.575 50.1816C121.608 48.5241 120.625 45.8275 120.625 42.0918C120.625 38.5911 121.509 35.9069 123.278 34.0391C125.06 32.1712 127.367 31.2373 130.199 31.2373Z" fill="white"/>
<path d="M118.399 31.293C118.498 31.293 118.579 31.2992 118.641 31.3115C118.715 31.3115 118.869 31.3177 119.104 31.3301V36.748C118.771 36.7109 118.474 36.6862 118.214 36.6738C117.954 36.6615 117.744 36.6553 117.583 36.6553C115.455 36.6553 114.027 37.348 113.297 38.7334C112.889 39.5127 112.685 40.7126 112.685 42.333V52H107.359V31.7754H112.406V35.3008C113.223 33.9525 113.934 33.0309 114.54 32.5361C115.53 31.7074 116.816 31.293 118.399 31.293Z" fill="white"/>
<path d="M93.2578 48.2705C94.804 48.2705 95.9915 47.7201 96.8203 46.6191C97.6491 45.5182 98.0635 43.9535 98.0635 41.9248C98.0635 39.8962 97.6491 38.3376 96.8203 37.249C95.9915 36.1481 94.804 35.5977 93.2578 35.5977C91.7116 35.5977 90.5179 36.1481 89.6768 37.249C88.848 38.3376 88.4336 39.8962 88.4336 41.9248C88.4336 43.9535 88.848 45.5182 89.6768 46.6191C90.5179 47.7201 91.7116 48.2705 93.2578 48.2705ZM103.611 41.9248C103.611 44.8936 102.758 47.4355 101.051 49.5508C99.3438 51.6536 96.7523 52.7051 93.2764 52.7051C89.8005 52.7051 87.209 51.6536 85.502 49.5508C83.7949 47.4355 82.9414 44.8936 82.9414 41.9248C82.9414 39.0055 83.7949 36.4759 85.502 34.3359C87.209 32.196 89.8005 31.126 93.2764 31.126C96.7523 31.126 99.3438 32.196 101.051 34.3359C102.758 36.4759 103.611 39.0055 103.611 41.9248Z" fill="white"/>
<path d="M79.0068 52H73.7188V24.6504H79.0068V52Z" fill="white"/>
<path d="M68.4678 29.3633H63.1055V24.4834H68.4678V29.3633ZM63.1055 31.7754H68.4678V52H63.1055V31.7754Z" fill="white"/>
<path d="M53.0303 42.166C52.6963 42.3763 52.3561 42.5495 52.0098 42.6855C51.6758 42.8092 51.2119 42.9268 50.6182 43.0381L49.4307 43.2607C48.3174 43.4587 47.5195 43.6999 47.0371 43.9844C46.2207 44.4668 45.8125 45.2152 45.8125 46.2295C45.8125 47.1325 46.0599 47.7881 46.5547 48.1963C47.0618 48.5921 47.6742 48.79 48.3916 48.79C49.5296 48.79 50.5749 48.4561 51.5273 47.7881C52.4922 47.1201 52.9932 45.9017 53.0303 44.1328V42.166ZM49.8203 39.6982C50.7975 39.5745 51.4964 39.4199 51.917 39.2344C52.6715 38.9128 53.0488 38.4118 53.0488 37.7314C53.0488 36.9027 52.7581 36.3337 52.1768 36.0244C51.6077 35.7028 50.7666 35.542 49.6533 35.542C48.404 35.542 47.5195 35.8512 47 36.4697C46.6289 36.9274 46.3815 37.5459 46.2578 38.3252H41.1553C41.2666 36.5563 41.7614 35.1029 42.6396 33.9648C44.0374 32.1836 46.4372 31.293 49.8389 31.293C52.0531 31.293 54.0199 31.7321 55.7393 32.6104C57.4587 33.4886 58.3184 35.1462 58.3184 37.583V46.8604C58.3184 47.5036 58.3307 48.2829 58.3555 49.1982C58.3926 49.891 58.4977 50.361 58.6709 50.6084C58.8441 50.8558 59.1038 51.0599 59.4502 51.2207V52H53.6982C53.5374 51.5918 53.4261 51.2083 53.3643 50.8496C53.3024 50.4909 53.2529 50.0827 53.2158 49.625C52.486 50.4167 51.6449 51.0908 50.6924 51.6475C49.5544 52.3031 48.2679 52.6309 46.833 52.6309C45.0023 52.6309 43.487 52.1113 42.2871 51.0723C41.0996 50.0208 40.5059 48.5365 40.5059 46.6191C40.5059 44.1328 41.4645 42.333 43.3818 41.2197C44.4333 40.6136 45.9795 40.1807 48.0205 39.9209L49.8203 39.6982Z" fill="white"/>
<path d="M41.7676 24.6504V29.4932H33.585V52H27.833V29.4932H19.6133V24.6504H41.7676Z" fill="white"/>
</svg>
