<svg width="24" height="26" viewBox="0 0 24 26" fill="none" xmlns="http://www.w3.org/2000/svg">
<mask id="mask0_94_6766" style="mask-type:luminance" maskUnits="userSpaceOnUse" x="0" y="0" width="24" height="26">
<path fill-rule="evenodd" clip-rule="evenodd" d="M0 25.9639H23.5444V0H0V25.9639V25.9639Z" fill="white"/>
</mask>
<g mask="url(#mask0_94_6766)">
<path fill-rule="evenodd" clip-rule="evenodd" d="M20.9499 2L20.8401 2.02719L19.4265 2.35835C18.6158 2.61709 18.1293 3.3707 17.972 4.62129L16.7825 14.0438C16.7632 14.1976 16.749 14.3572 16.7388 14.5191H16.7145L15.9417 20.6571C15.8289 21.5786 15.4054 22.3673 14.6689 23.0206C13.9236 23.6747 13.0876 24 12.1654 24H9.98184C9.28194 24 8.6708 23.8047 8.14864 23.4092C7.52498 23.8047 6.86195 24 6.16206 24H3.96611C3.04285 24 2.29232 23.6747 1.71452 23.0206C1.14377 22.3673 0.915172 21.5786 1.02793 20.6571L2.87524 6.12019H1.19645L1.26563 5.65731H7.63057L7.5747 6.12019H5.75789L3.84037 21.3778C3.6532 22.8175 3.95279 23.5404 4.73496 23.5404H5.50688C6.28699 23.5404 6.77047 22.8175 6.94604 21.3778L8.93262 5.65731H11.8281L9.84154 21.3778C9.66495 22.8175 9.96671 23.5404 10.7518 23.5404H11.5075C12.2915 23.5404 12.7769 22.8175 12.9617 21.3778L14.99 5.34021C15.1028 4.41833 15.5284 3.63226 16.2645 2.97849C16.9999 2.32589 17.8357 2 18.769 2H20.9499Z" fill="white"/>
</g>
</svg>
